# xmcd
#
# Track frame offsets: 
#        180
#        19195
#        33922
#        61110
#        83590
#        102807
#        125562
#        152527
#        180705
#        198655
#        212785
#        228417
#        237777
#        250635
#        266585
#        280315
#        285875
#
# Disc length: 4299 seconds
#
# Revision: 0
# Processed by: cddbd v1.5.2PL0 Copyright (c) Steve Scherf et al.
# Submitted via: ExactAudioCopy v1.0b4
#
DISCID=dd10c911
DTITLE=The Gary Bernath Band - Inside The Blues
DYEAR=1997
DGENRE=Blues
TTITLE0=Inside The Blues
TTITLE1=Around The Town
TTITLE2=Eazy Babby
TTITLE3=John's Interlude - Morning Train
TTITLE4=Everything Gonna Be Alright
TTITLE5=Call My Job
TTITLE6=Nobody's Fool
TTITLE7=Double Trouble
TTITLE8=Roller Coaster
TTITLE9=Reap What You Sow
TTITLE10=Rooster Blues
TTITLE11=Nobody But You
TTITLE12=Good Time Charlie
TTITLE13=The Blues Seem To Follow Me
TTITLE14=Wait For Me
TTITLE15=Still A Fool aka Two Trains Running
TTITLE16=That's All Right
EXTD=
EXTT0=
EXTT1=
EXTT2=
EXTT3=
EXTT4=
EXTT5=
EXTT6=
EXTT7=
EXTT8=
EXTT9=
EXTT10=
EXTT11=
EXTT12=
EXTT13=
EXTT14=
EXTT15=
EXTT16=
PLAYORDER=
